<svg width="32" height="32" viewBox="0 0 32 32" fill="none" xmlns="http://www.w3.org/2000/svg">
<path d="M27.5 5H4.5C4.10218 5.00002 3.72066 5.15806 3.43936 5.43936C3.15806 5.72066 3.00002 6.10218 3 6.5V25.5C3.00002 25.8978 3.15806 26.2793 3.43936 26.5606C3.72066 26.8419 4.10218 27 4.5 27H27.5C27.8978 27 28.2793 26.8419 28.5606 26.5606C28.8419 26.2793 29 25.8978 29 25.5V6.5C29 6.10218 28.8419 5.72066 28.5606 5.43936C28.2793 5.15806 27.8978 5.00002 27.5 5ZM26 18.5L21.2057 13.2699C21.115 13.1696 21.0048 13.0889 20.8818 13.0327C20.7588 12.9765 20.6256 12.946 20.4904 12.9431C20.3552 12.9401 20.2208 12.9648 20.0954 13.0156C19.9701 13.0664 19.8565 13.1423 19.7615 13.2385L14.4141 18.5859L19.8281 24H17L12.2071 19.207C12.0195 19.0195 11.7652 18.9142 11.5 18.9142C11.2348 18.9142 10.9805 19.0195 10.7929 19.207L6 24V8H26V18.5ZM8.1 12.5C8.1 12.0253 8.24076 11.5613 8.50447 11.1666C8.76819 10.772 9.14302 10.4643 9.58156 10.2827C10.0201 10.101 10.5027 10.0535 10.9682 10.1461C11.4338 10.2387 11.8614 10.4673 12.1971 10.8029C12.5327 11.1386 12.7613 11.5662 12.8539 12.0318C12.9465 12.4973 12.899 12.9799 12.7173 13.4184C12.5357 13.857 12.228 14.2318 11.8334 14.4955C11.4387 14.7592 10.9747 14.9 10.5 14.9C9.86348 14.9 9.25304 14.6471 8.80296 14.197C8.35287 13.747 8.10001 13.1365 8.1 12.5Z" fill="#B5B5B5"/>
</svg>
