<svg width="40" height="40" viewBox="0 0 40 40" fill="none" xmlns="http://www.w3.org/2000/svg">
<path d="M22.6516 20L30.0735 12.5781C30.4257 12.2265 30.6238 11.7493 30.6243 11.2516C30.6247 10.7539 30.4274 10.2764 30.0758 9.92418C29.7242 9.57193 29.247 9.3738 28.7493 9.37336C28.2516 9.37292 27.7741 9.57021 27.4219 9.92183L20 17.3437L12.5781 9.92183C12.2259 9.56959 11.7482 9.3717 11.25 9.3717C10.7519 9.3717 10.2741 9.56959 9.92189 9.92183C9.56965 10.2741 9.37177 10.7518 9.37177 11.25C9.37177 11.7481 9.56965 12.2258 9.92189 12.5781L17.3438 20L9.92189 27.4218C9.56965 27.7741 9.37177 28.2518 9.37177 28.75C9.37177 29.2481 9.56965 29.7258 9.92189 30.0781C10.2741 30.4303 10.7519 30.6282 11.25 30.6282C11.7482 30.6282 12.2259 30.4303 12.5781 30.0781L20 22.6562L27.4219 30.0781C27.7741 30.4303 28.2519 30.6282 28.75 30.6282C29.2482 30.6282 29.7259 30.4303 30.0781 30.0781C30.4304 29.7258 30.6283 29.2481 30.6283 28.75C30.6283 28.2518 30.4304 27.7741 30.0781 27.4218L22.6516 20Z" fill="white"/>
</svg>
